<?xml version="1.0" encoding="utf-8"?>
<!-- Generator: Adobe Illustrator 17.0.0, SVG Export Plug-In . SVG Version: 6.00 Build 0)  -->
<!DOCTYPE svg PUBLIC "-//W3C//DTD SVG 1.1//EN" "http://www.w3.org/Graphics/SVG/1.1/DTD/svg11.dtd">
<svg version="1.1" id="Layer_1" xmlns="http://www.w3.org/2000/svg" xmlns:xlink="http://www.w3.org/1999/xlink" x="0px" y="0px"
	 width="1500px" height="700px" viewBox="0 0 1500 700" enable-background="new 0 0 1500 700" xml:space="preserve">
<g>
	<g>
		<path fill="#110F0E" d="M715.624,304.868c-16.993,0-30.818-13.825-30.818-30.818c0-16.993,13.825-30.818,30.818-30.818
			c16.993,0,30.818,13.825,30.818,30.818C746.442,291.043,732.617,304.868,715.624,304.868z M715.624,247.734
			c-14.511,0-26.316,11.806-26.316,26.316c0,14.511,11.806,26.316,26.316,26.316s26.317-11.805,26.317-26.316
			C741.94,259.539,730.135,247.734,715.624,247.734z"/>
	</g>
	<g>
		<path fill="#110F0E" d="M715.624,298.436c-13.447,0-24.386-10.939-24.386-24.386c0-13.447,10.939-24.386,24.386-24.386
			c13.447,0,24.386,10.939,24.386,24.386C740.01,287.497,729.071,298.436,715.624,298.436z M715.624,251.915
			c-12.205,0-22.135,9.93-22.135,22.135c0,12.205,9.93,22.135,22.135,22.135c12.205,0,22.135-9.93,22.135-22.135
			C737.759,261.845,727.829,251.915,715.624,251.915z"/>
	</g>
	<g>
		<path fill="#110F0E" d="M749.091,330.278l-1.029-4.723c-4.931-22.611-18.185-25.116-18.746-25.212l0.705-4.446
			c0.641,0.099,14.867,2.554,21.275,24.15l12.661-16.42c-21.673-0.395-27.107-12.987-27.342-13.56l4.157-1.727
			c0.211,0.491,5.437,12.018,27.706,10.688l4.935-0.294L749.091,330.278z"/>
	</g>
</g>
</svg>
